<svg width="658" height="230" viewBox="0 0 658 230" fill="none" xmlns="http://www.w3.org/2000/svg">
<g clip-path="url(#clip0)">
<path fill-rule="evenodd" clip-rule="evenodd" d="M216.091 -0.291016H269.245L135.028 229.136L-0.0722656 -0.291016H54.2911L135.028 137.828L216.091 -0.291016Z" fill="#41B883"/>
<path fill-rule="evenodd" clip-rule="evenodd" d="M165.859 -0.339844H216.413L134.959 138.068L54.1582 -0.339844H103.922L134.959 52.9448L165.859 -0.339844Z" fill="#35495E"/>
<path fill-rule="evenodd" clip-rule="evenodd" d="M300.957 44.9454C300.957 43.2529 301.904 41.8425 303.799 40.714C305.693 39.5857 307.673 39.0215 309.74 39.0215C312.61 39.0215 314.389 40.0934 315.078 42.2374L345.388 142.773L375.525 42.2374C376.328 40.0935 378.051 39.0215 380.691 39.0215C382.872 39.0215 384.91 39.6421 386.805 40.8833C388.699 42.1244 389.646 43.5348 389.646 45.1146C389.646 45.2275 389.618 45.3967 389.56 45.6224C389.502 45.848 389.474 46.0737 389.474 46.2994L354.515 158.852C353.252 162.124 350.21 163.76 345.388 163.76C340.566 163.76 337.638 162.124 336.605 158.852L301.303 46.2994C301.073 45.6224 300.959 45.1711 300.959 44.9454H300.957ZM391.003 131.601V87.5968C391.003 86.2428 391.721 85.058 393.156 84.0425C394.591 83.027 396.284 82.5193 398.236 82.5193C400.073 82.5193 401.709 83.0552 403.144 84.1271C404.579 85.1991 405.297 86.3556 405.297 87.5968V131.601C405.297 136.679 407.248 141.248 411.152 145.311C415.055 149.373 419.705 151.404 425.101 151.404C430.382 151.404 434.974 149.401 438.878 145.395C442.781 141.39 444.733 136.791 444.733 131.601V87.4249C444.733 86.1837 445.451 85.0554 446.886 84.04C448.321 83.0245 450.014 82.5167 451.966 82.5167C454.033 82.5167 455.726 82.9962 457.047 83.9554C458.367 84.9145 459.027 86.071 459.027 87.425V131.601C459.027 140.29 455.669 147.877 448.953 154.365C442.236 160.854 434.286 164.098 425.101 164.098C415.802 164.098 407.794 160.854 401.078 154.365C394.362 147.877 391.004 140.29 391.004 131.601H391.003ZM470.714 131.263V113.491C470.714 104.803 474.072 97.2996 480.788 90.9807C487.504 84.662 495.57 81.5027 504.984 81.5027C513.939 81.5027 521.689 84.4646 528.233 90.3886C534.777 96.3123 538.049 103.731 538.049 112.645C538.049 115.917 537.647 118.541 536.843 120.515C536.04 122.49 534.805 123.9 533.141 124.747C531.476 125.593 529.926 126.129 528.491 126.355C527.056 126.58 525.133 126.693 522.722 126.693H485.007V131.771C485.007 137.977 487.274 142.941 491.809 146.665C496.344 150.389 502.228 152.25 509.461 152.25C513.25 152.25 516.55 151.686 519.363 150.558C522.176 149.429 524.443 148.329 526.165 147.258C527.888 146.186 529.265 145.65 530.299 145.65C531.906 145.65 533.283 146.355 534.432 147.765C535.58 149.176 536.154 150.614 536.154 152.081C536.154 154.676 533.542 157.328 528.318 160.036C523.094 162.744 516.636 164.098 508.944 164.098C497.693 164.098 488.509 161.08 481.391 155.043C474.273 149.006 470.713 141.08 470.713 131.263L470.714 131.263ZM485.007 117.215H516.867C519.852 117.215 521.861 116.848 522.894 116.115C523.928 115.381 524.444 113.943 524.444 111.799C524.444 106.721 522.55 102.264 518.761 98.428C514.972 94.5916 510.323 92.6734 504.812 92.6734C499.416 92.6734 494.766 94.4505 490.863 98.0046C486.959 101.559 485.008 105.931 485.008 111.122L485.007 117.215ZM545.261 154.957C545.261 152.475 546.122 150.36 547.844 148.611C549.566 146.862 551.69 145.987 554.216 145.987C556.627 145.987 558.693 146.862 560.415 148.611C562.137 150.36 562.998 152.475 562.998 154.957C562.998 157.327 562.137 159.386 560.415 161.135C558.693 162.884 556.627 163.759 554.216 163.759C551.69 163.759 549.566 162.884 547.844 161.135C546.122 159.386 545.261 157.327 545.261 154.957ZM557.983 195.409C557.983 193.604 558.557 192.109 559.705 190.924C560.853 189.739 562.231 189.147 563.838 189.147C568.316 189.147 571.243 187.511 572.621 184.239C573.999 180.967 574.688 176.058 574.688 169.514V87.4263C574.688 85.9594 575.348 84.7747 576.668 83.872C577.988 82.9693 579.682 82.518 581.748 82.518C583.815 82.518 585.537 82.9693 586.915 83.872C588.292 84.7747 588.981 85.9594 588.981 87.4263V169.514C588.981 179.331 587.029 187.116 583.126 192.871C579.222 198.625 573.31 201.502 565.388 201.502C560.452 201.502 557.983 199.471 557.983 195.409L557.983 195.409ZM572.793 52.391C572.793 50.2471 573.654 48.3855 575.376 46.8057C577.098 45.226 579.222 44.4362 581.748 44.4362C584.159 44.4362 586.225 45.226 587.947 46.8057C589.67 48.3854 590.531 50.2472 590.531 52.391C590.531 54.5348 589.67 56.4249 587.947 58.061C586.225 59.6971 584.159 60.5151 581.748 60.5151C579.337 60.5151 577.242 59.6971 575.462 58.061C573.683 56.4249 572.793 54.5348 572.793 52.391H572.793ZM599.636 151.233C599.636 149.766 600.124 148.327 601.1 146.917C602.076 145.507 603.253 144.802 604.63 144.802C605.549 144.802 606.869 145.479 608.591 146.833C610.313 148.187 612.782 149.512 615.996 150.81C619.211 152.107 622.999 152.756 627.362 152.756C633.103 152.756 637.264 151.741 639.847 149.71C642.431 147.679 643.722 145.14 643.722 142.093C643.722 138.37 642.287 135.408 639.417 133.208C636.547 131.007 633.045 129.343 628.912 128.215C624.779 127.086 620.646 125.845 616.513 124.491C612.379 123.137 608.878 120.88 606.008 117.721C603.137 114.562 601.702 110.387 601.702 105.196C601.702 98.7649 604.027 93.2077 608.677 88.5251C613.326 83.8426 620.416 81.5012 629.945 81.5012C636.03 81.5012 641.598 82.4321 646.649 84.2939C651.701 86.1557 654.227 88.2713 654.227 90.6407C654.227 91.9947 653.681 93.518 652.591 95.2105C651.5 96.903 650.151 97.7493 648.543 97.7493C648.084 97.7493 645.874 96.9312 641.913 95.2951C637.952 93.659 634.02 92.8409 630.117 92.8409C624.836 92.8409 620.903 94.0539 618.32 96.4799C615.737 98.9058 614.446 101.642 614.446 104.689C614.446 107.848 615.881 110.331 618.751 112.136C621.621 113.941 625.151 115.352 629.342 116.367C633.532 117.383 637.694 118.624 641.827 120.091C645.96 121.558 649.462 124.068 652.332 127.622C655.203 131.177 656.638 135.774 656.638 141.416C656.638 148.412 654.112 153.941 649.06 158.003C644.009 162.065 636.948 164.096 627.878 164.096C620.072 164.096 613.413 162.714 607.902 159.949C602.391 157.185 599.636 154.279 599.636 151.233L599.636 151.233Z" fill="#010101"/>
</g>
<defs>
<clipPath id="clip0">
<rect width="658" height="230" fill="white"/>
</clipPath>
</defs>
</svg>
